<svg width="232" height="150" viewBox="0 0 232 150" fill="none" xmlns="http://www.w3.org/2000/svg">
<path d="M116 45.8332L87.0819 27.3316C86.2219 26.7814 85.3445 26.7333 84.4497 27.1873C83.555 27.6413 83.0675 28.3625 82.9874 29.3507C82.9073 29.8689 82.966 30.3683 83.1637 30.8491C83.3613 31.3298 83.6978 31.7171 84.1732 32.0109L113.973 51.0495C114.617 51.4394 115.294 51.6344 116.003 51.6344C116.712 51.6344 117.386 51.4394 118.027 51.0495L147.827 32.0109C148.303 31.7171 148.646 31.3298 148.857 30.8491C149.068 30.3683 149.12 29.8689 149.013 29.3507C148.933 28.3625 148.445 27.648 147.551 27.2074C146.656 26.7667 145.779 26.8215 144.919 27.3717L116 45.8332ZM145.167 93.7497C139.964 93.7497 135.538 91.9255 131.89 88.2771C128.241 84.6285 126.417 80.2028 126.417 74.9999C126.417 69.797 128.241 65.3713 131.89 61.7227C135.538 58.0742 139.964 56.25 145.167 56.25C150.37 56.25 154.796 58.0742 158.444 61.7227C162.093 65.3713 163.917 69.797 163.917 74.9999C163.917 80.2028 162.093 84.6285 158.444 88.2771C154.796 91.9256 150.37 93.7498 145.167 93.7498V93.7497ZM135.872 76.8428H154.471C154.967 76.8428 155.397 76.6585 155.76 76.2899C156.123 75.9214 156.305 75.4914 156.305 74.9999C156.305 74.5084 156.12 74.0784 155.752 73.7099C155.383 73.3413 154.953 73.157 154.462 73.157H135.863C135.367 73.157 134.937 73.3413 134.574 73.7099C134.211 74.0784 134.029 74.5084 134.029 74.9999C134.029 75.4914 134.213 75.9214 134.582 76.2899C134.951 76.6585 135.381 76.8428 135.872 76.8428ZM83.9491 81.2498C81.8778 81.2498 80.1046 80.5123 78.6296 79.0372C77.1545 77.5622 76.417 75.789 76.417 73.7177V26.2821C76.417 24.2108 77.1545 22.4376 78.6296 20.9626C80.1046 19.4875 81.8778 18.75 83.9491 18.75H148.051C150.123 18.75 151.896 19.4875 153.371 20.9626C154.846 22.4376 155.583 24.2108 155.583 26.2821V50.1122C153.933 49.3804 152.239 48.8315 150.503 48.4656C148.767 48.0997 146.988 47.9167 145.167 47.9167C137.622 47.9167 131.222 50.5444 125.967 55.7999C120.711 61.0553 118.084 67.4553 118.084 74.9999C118.084 76.0416 118.148 77.0832 118.276 78.1248C118.404 79.1665 118.623 80.2081 118.933 81.2498H83.9491Z" fill="#D9D9D9"/>
<path d="M5.14355 130.01C5.91113 130.016 6.59082 130.244 7.18262 130.695C7.78027 131.141 8.24609 131.773 8.58008 132.594C8.91992 133.414 9.09277 134.369 9.09863 135.459C9.09277 136.549 8.91992 137.504 8.58008 138.324C8.24609 139.145 7.78027 139.777 7.18262 140.223C6.58496 140.668 5.90527 140.891 5.14355 140.891C4.37598 140.891 3.69336 140.668 3.0957 140.223C2.49805 139.777 2.03223 139.145 1.69824 138.324C1.37012 137.504 1.20605 136.549 1.20605 135.459C1.20605 134.369 1.37012 133.414 1.69824 132.594C2.03223 131.773 2.49805 131.141 3.0957 130.695C3.69336 130.244 4.37598 130.016 5.14355 130.01ZM5.14355 131.24C4.62793 131.246 4.1709 131.425 3.77246 131.776C3.37402 132.122 3.06348 132.614 2.84082 133.253C2.61816 133.886 2.50684 134.621 2.50684 135.459C2.50684 136.297 2.61816 137.035 2.84082 137.674C3.06348 138.307 3.37402 138.796 3.77246 139.142C4.17676 139.487 4.63379 139.66 5.14355 139.66C5.65918 139.66 6.11328 139.487 6.50586 139.142C6.9043 138.796 7.21191 138.307 7.42871 137.674C7.65137 137.035 7.7627 136.297 7.7627 135.459C7.7627 134.621 7.65137 133.886 7.42871 133.253C7.21191 132.614 6.9043 132.122 6.50586 131.776C6.11328 131.425 5.65918 131.246 5.14355 131.24ZM13.0537 135.037H15.6729V136.232H13.0537V144.424H11.6826V128.797H13.0537V135.037ZM22.1416 131.697C22.1416 132.389 22.3115 133.054 22.6514 133.692C22.9912 134.331 23.4658 134.894 24.0752 135.38C24.6846 135.86 25.376 136.227 26.1494 136.479L25.4463 137.551C24.5322 137.24 23.7295 136.777 23.0381 136.162C22.3467 135.541 21.8252 134.817 21.4736 133.991C21.1338 134.876 20.6123 135.655 19.9092 136.329C19.2061 137.003 18.3916 137.51 17.4658 137.85L16.7451 136.777C17.5186 136.502 18.21 136.106 18.8193 135.591C19.4287 135.069 19.9033 134.472 20.2432 133.798C20.583 133.124 20.7529 132.424 20.7529 131.697V131.029H17.0967V129.904H25.7451V131.029H22.1416V131.697ZM29.4189 138.254H28.0479V128.797H29.4189V138.254ZM29.4189 144.424H28.0479V140.223H18.9072V139.08H29.4189V144.424ZM50.8994 142.455H36.5908V141.295H43.042V137.709H44.3955V141.295H50.8994V142.455ZM49.5283 132.436H44.4307C44.4307 133.227 44.6855 133.953 45.1953 134.615C45.7051 135.277 46.3848 135.831 47.2344 136.276C48.0898 136.716 49.0244 137.018 50.0381 137.182L49.5107 138.271C48.2041 138.037 47.0322 137.606 45.9951 136.979C44.958 136.347 44.1992 135.559 43.7188 134.615C43.2441 135.559 42.4883 136.347 41.4512 136.979C40.4141 137.606 39.2393 138.037 37.9268 138.271L37.3818 137.182C38.4014 137.018 39.3389 136.716 40.1943 136.276C41.0557 135.831 41.7412 135.277 42.251 134.615C42.7666 133.953 43.0244 133.227 43.0244 132.436H37.9268V131.293H43.042V129.131H44.3955V131.293H49.5283V132.436ZM65.5068 144.424H64.1885V136.232H61.8857V143.615H60.6201V129.148H61.8857V135.09H64.1885V128.797H65.5068V144.424ZM58.5811 131.855H54.0986V139.379C55.2529 139.373 56.2314 139.341 57.0342 139.282C57.8428 139.218 58.6572 139.104 59.4775 138.939L59.6006 140.1C58.71 140.281 57.8311 140.404 56.9639 140.469C56.1025 140.527 55.0244 140.557 53.7295 140.557H52.7275V130.713H58.5811V131.855ZM79.9209 132.576H82.2764V133.736H79.9209V137.938H78.5498V128.797H79.9209V132.576ZM69.7256 132.084H74.2783V129.693H75.6494V136.953H68.3721V129.693H69.7256V132.084ZM74.2783 135.846V133.191H69.7256V135.846H74.2783ZM80.0439 139.924H71.4834V143.088H80.3428V144.213H70.1123V138.816H80.0439V139.924ZM97.499 138.166H83.2607V137.041H97.499V138.166ZM95.917 144.09H85.1064V139.537H86.4951V142.93H95.917V144.09ZM90.3799 129.359C91.4932 129.354 92.4658 129.474 93.2979 129.72C94.1299 129.966 94.7715 130.323 95.2227 130.792C95.6738 131.255 95.8994 131.809 95.8994 132.453C95.8994 133.098 95.6738 133.654 95.2227 134.123C94.7715 134.586 94.1299 134.943 93.2979 135.195C92.4658 135.441 91.4932 135.564 90.3799 135.564C89.2549 135.564 88.2764 135.441 87.4443 135.195C86.6123 134.943 85.9707 134.586 85.5195 134.123C85.0684 133.654 84.8428 133.098 84.8428 132.453C84.8428 131.809 85.0684 131.255 85.5195 130.792C85.9707 130.323 86.6123 129.966 87.4443 129.72C88.2764 129.474 89.2549 129.354 90.3799 129.359ZM90.3799 130.467C89.5479 130.467 88.8213 130.549 88.2002 130.713C87.5791 130.871 87.0986 131.1 86.7588 131.398C86.4248 131.697 86.2607 132.049 86.2666 132.453C86.2607 132.857 86.4248 133.209 86.7588 133.508C87.0986 133.807 87.5791 134.038 88.2002 134.202C88.8213 134.36 89.5479 134.439 90.3799 134.439C91.2061 134.439 91.9297 134.36 92.5508 134.202C93.1719 134.038 93.6494 133.807 93.9834 133.508C94.3232 133.209 94.4932 132.857 94.4932 132.453C94.4932 132.049 94.3232 131.697 93.9834 131.398C93.6494 131.1 93.1719 130.871 92.5508 130.713C91.9297 130.549 91.2061 130.467 90.3799 130.467ZM116.694 144.424H115.376V136.232H113.073V143.615H111.808V129.148H113.073V135.09H115.376V128.797H116.694V144.424ZM109.769 131.855H105.286V139.379C106.44 139.373 107.419 139.341 108.222 139.282C109.03 139.218 109.845 139.104 110.665 138.939L110.788 140.1C109.897 140.281 109.019 140.404 108.151 140.469C107.29 140.527 106.212 140.557 104.917 140.557H103.915V130.713H109.769V131.855ZM124.446 132.998C124.44 133.924 124.628 134.844 125.009 135.758C125.39 136.666 125.905 137.475 126.556 138.184C127.206 138.893 127.915 139.42 128.683 139.766L127.839 140.855C126.948 140.416 126.14 139.763 125.413 138.896C124.692 138.022 124.147 137.032 123.778 135.925C123.415 137.103 122.87 138.157 122.144 139.089C121.417 140.015 120.597 140.709 119.683 141.172L118.804 140.012C119.571 139.654 120.28 139.112 120.931 138.386C121.581 137.653 122.1 136.815 122.486 135.872C122.873 134.923 123.069 133.965 123.075 132.998V130.15H124.446V132.998ZM131.776 144.459H130.388V128.797H131.776V144.459ZM148.757 142.42H134.448V141.277H140.882V137.902H136.136V129.904H137.524V132.734H145.646V129.904H146.999V137.902H142.235V141.277H148.757V142.42ZM145.646 136.777V133.859H137.524V136.777H145.646ZM162.626 137.463H151.833V130.256H162.468V131.398H153.204V136.32H162.626V137.463ZM164.313 142.297H150.005V141.137H164.313V142.297ZM177.655 135.16H180.187V136.32H177.655V144.424H176.284V128.797H177.655V135.16ZM173.612 130.484C173.612 132.811 173.029 134.92 171.863 136.812C170.697 138.699 168.89 140.246 166.44 141.453L165.667 140.363C167.677 139.361 169.232 138.125 170.334 136.654C171.436 135.178 172.065 133.508 172.224 131.645H166.388V130.484H173.612ZM188.747 139.924H191.595V137.973H192.878V144.213H187.446V137.973H188.747V139.924ZM191.595 143.123V140.979H188.747V143.123H191.595ZM197.343 139.203C197.337 139.766 197.442 140.316 197.659 140.855C197.882 141.389 198.21 141.869 198.644 142.297C199.083 142.725 199.61 143.053 200.226 143.281L199.505 144.336C198.808 144.055 198.216 143.656 197.729 143.141C197.249 142.625 196.886 142.03 196.64 141.356C196.382 142.019 196.013 142.607 195.532 143.123C195.052 143.645 194.478 144.049 193.81 144.336L193.089 143.281C193.698 143.029 194.22 142.687 194.653 142.253C195.087 141.819 195.415 141.339 195.638 140.812C195.86 140.278 195.972 139.742 195.972 139.203V137.867H197.343V139.203ZM189.942 129.5C190.634 129.5 191.264 129.623 191.832 129.869C192.4 130.115 192.866 130.467 193.229 130.924C193.599 131.375 193.833 131.896 193.933 132.488H197.202V128.797H198.591V137.076H197.202V133.631H193.941C193.854 134.24 193.625 134.776 193.256 135.239C192.893 135.702 192.424 136.06 191.85 136.312C191.275 136.563 190.64 136.689 189.942 136.689C189.157 136.689 188.457 136.54 187.842 136.241C187.227 135.937 186.746 135.512 186.4 134.967C186.055 134.416 185.882 133.789 185.882 133.086C185.882 132.389 186.055 131.768 186.4 131.223C186.746 130.678 187.227 130.256 187.842 129.957C188.457 129.652 189.157 129.5 189.942 129.5ZM189.942 130.66C189.415 130.66 188.943 130.763 188.527 130.968C188.111 131.173 187.786 131.46 187.552 131.829C187.317 132.198 187.2 132.617 187.2 133.086C187.2 133.561 187.317 133.985 187.552 134.36C187.786 134.729 188.111 135.02 188.527 135.23C188.943 135.441 189.415 135.547 189.942 135.547C190.464 135.547 190.93 135.441 191.34 135.23C191.75 135.02 192.069 134.729 192.298 134.36C192.532 133.985 192.649 133.561 192.649 133.086C192.649 132.617 192.532 132.198 192.298 131.829C192.069 131.46 191.75 131.173 191.34 130.968C190.93 130.763 190.464 130.66 189.942 130.66ZM205.394 130.01C206.097 130.016 206.727 130.212 207.283 130.599C207.846 130.985 208.3 131.536 208.646 132.251C208.991 132.966 209.199 133.807 209.27 134.773H212.776V128.797H214.147V144.459H212.776V135.916H209.287C209.234 136.924 209.038 137.803 208.698 138.553C208.358 139.303 207.901 139.88 207.327 140.284C206.759 140.688 206.114 140.891 205.394 140.891C204.632 140.891 203.952 140.668 203.354 140.223C202.763 139.777 202.3 139.145 201.966 138.324C201.638 137.504 201.474 136.549 201.474 135.459C201.474 134.369 201.638 133.414 201.966 132.594C202.3 131.773 202.763 131.141 203.354 130.695C203.946 130.244 204.626 130.016 205.394 130.01ZM205.394 131.24C204.884 131.246 204.43 131.425 204.031 131.776C203.639 132.122 203.334 132.614 203.117 133.253C202.9 133.886 202.792 134.621 202.792 135.459C202.792 136.297 202.9 137.035 203.117 137.674C203.334 138.307 203.639 138.796 204.031 139.142C204.43 139.487 204.884 139.66 205.394 139.66C205.897 139.66 206.346 139.487 206.738 139.142C207.137 138.796 207.444 138.307 207.661 137.674C207.884 137.035 207.995 136.297 207.995 135.459C207.995 134.621 207.884 133.886 207.661 133.253C207.444 132.614 207.14 132.122 206.747 131.776C206.354 131.425 205.903 131.246 205.394 131.24ZM231.058 142.42H216.749V141.26H220.3V137.041C219.62 136.689 219.093 136.238 218.718 135.688C218.343 135.131 218.155 134.504 218.155 133.807C218.155 133.01 218.398 132.31 218.885 131.706C219.371 131.097 220.045 130.625 220.906 130.291C221.773 129.957 222.761 129.787 223.868 129.781C224.976 129.787 225.96 129.957 226.821 130.291C227.688 130.625 228.365 131.097 228.852 131.706C229.338 132.31 229.581 133.01 229.581 133.807C229.581 134.492 229.399 135.11 229.036 135.661C228.673 136.206 228.163 136.654 227.507 137.006V141.26H231.058V142.42ZM223.868 130.924C223.019 130.918 222.263 131.035 221.601 131.275C220.938 131.516 220.42 131.855 220.045 132.295C219.676 132.729 219.491 133.232 219.491 133.807C219.491 134.381 219.676 134.891 220.045 135.336C220.42 135.775 220.938 136.118 221.601 136.364C222.263 136.604 223.019 136.725 223.868 136.725C224.712 136.725 225.465 136.602 226.127 136.355C226.789 136.109 227.308 135.767 227.683 135.327C228.058 134.888 228.245 134.381 228.245 133.807C228.245 133.232 228.058 132.729 227.683 132.295C227.308 131.855 226.789 131.516 226.127 131.275C225.465 131.035 224.712 130.918 223.868 130.924ZM226.118 141.26V137.542C225.421 137.724 224.671 137.814 223.868 137.814C223.06 137.814 222.321 137.727 221.653 137.551V141.26H226.118Z" fill="#9FA6B2"/>
</svg>
