<svg width="19" height="18" viewBox="0 0 19 18" fill="none" xmlns="http://www.w3.org/2000/svg">
<path d="M11.2259 8.99998L5.57634 3.35046C5.42731 3.20142 5.35471 3.02402 5.35854 2.81826C5.36239 2.61248 5.43884 2.43508 5.58787 2.28606C5.73691 2.13702 5.91431 2.0625 6.12007 2.0625C6.32584 2.0625 6.50324 2.13702 6.65227 2.28606L12.3941 8.03942C12.5297 8.17499 12.6302 8.32691 12.6955 8.49518C12.7609 8.66345 12.7936 8.83172 12.7936 8.99998C12.7936 9.16824 12.7609 9.33651 12.6955 9.50479C12.6302 9.67305 12.5297 9.82497 12.3941 9.96054L6.64074 15.7139C6.4917 15.8629 6.31622 15.9355 6.1143 15.9317C5.91239 15.9279 5.73691 15.8514 5.58787 15.7024C5.43884 15.5533 5.36432 15.3759 5.36432 15.1702C5.36432 14.9644 5.43884 14.787 5.58787 14.638L11.2259 8.99998Z" fill="#333236"/>
</svg>
