<svg width="26" height="26" viewBox="0 0 26 26" fill="none" xmlns="http://www.w3.org/2000/svg">
<path d="M12.5656 15.0127L9.15188 11.599C9.10479 11.5519 9.06771 11.4993 9.04062 11.4413C9.01354 11.3832 9 11.321 9 11.2546C9 11.1218 9.04489 11.0065 9.13466 10.9086C9.22441 10.8107 9.34272 10.7617 9.48959 10.7617H16.6812C16.828 10.7617 16.9464 10.8111 17.0361 10.91C17.1259 11.0089 17.1708 11.1242 17.1708 11.256C17.1708 11.289 17.1201 11.4034 17.0187 11.5992L13.6052 15.0127C13.5267 15.0912 13.4456 15.1485 13.3618 15.1846C13.278 15.2207 13.1859 15.2388 13.0854 15.2388C12.9849 15.2388 12.8927 15.2207 12.8089 15.1846C12.7252 15.1485 12.6441 15.0912 12.5656 15.0127Z" fill="#333236"/>
</svg>
