<svg width="22" height="22" viewBox="0 0 22 22" fill="none" xmlns="http://www.w3.org/2000/svg">
<rect width="22" height="22" rx="4" fill="#F1EFFD"/>
<path d="M10.2411 11.7578H6.95562C6.7428 11.7578 6.56321 11.6846 6.41683 11.5382C6.27045 11.3918 6.19727 11.2122 6.19727 10.9994C6.19727 10.7866 6.27045 10.6071 6.41683 10.4607C6.56321 10.3143 6.7428 10.2411 6.95562 10.2411H10.2411V6.95562C10.2411 6.7428 10.3143 6.56321 10.4607 6.41683C10.6071 6.27045 10.7866 6.19727 10.9994 6.19727C11.2122 6.19727 11.3918 6.27045 11.5382 6.41683C11.6846 6.56321 11.7578 6.7428 11.7578 6.95562V10.2411H15.0433C15.2561 10.2411 15.4357 10.3143 15.5821 10.4607C15.7284 10.6071 15.8016 10.7866 15.8016 10.9994C15.8016 11.2122 15.7284 11.3918 15.5821 11.5382C15.4357 11.6846 15.2561 11.7578 15.0433 11.7578H11.7578V15.0433C11.7578 15.2561 11.6846 15.4357 11.5382 15.5821C11.3918 15.7284 11.2122 15.8016 10.9994 15.8016C10.7866 15.8016 10.6071 15.7284 10.4607 15.5821C10.3143 15.4357 10.2411 15.2561 10.2411 15.0433V11.7578Z" fill="#5534DA"/>
</svg>
