<svg width="14" height="10" viewBox="0 0 14 10" fill="none" xmlns="http://www.w3.org/2000/svg">
<path d="M4.75443 8.22328L12.673 0.304701C12.8094 0.168377 12.9712 0.0987407 13.1587 0.0957921C13.3461 0.0928587 13.5109 0.162495 13.6531 0.304701C13.7953 0.446891 13.8664 0.610241 13.8664 0.79475C13.8664 0.979245 13.7953 1.1426 13.6531 1.2848L5.33438 9.60353C5.16868 9.76923 4.97536 9.85208 4.75443 9.85208C4.53349 9.85208 4.34018 9.76923 4.17447 9.60353L0.347391 5.77647C0.211068 5.64014 0.143784 5.47826 0.145541 5.29082C0.147314 5.10337 0.219295 4.93856 0.361485 4.79637C0.503691 4.65416 0.667041 4.58306 0.851535 4.58306C1.03605 4.58306 1.1994 4.65416 1.34159 4.79637L4.75443 8.22328Z" fill="#787486"/>
</svg>
