<svg width="10" height="16" viewBox="0 0 10 16" fill="none" xmlns="http://www.w3.org/2000/svg">
<path d="M2.64075 8.00067L8.918 14.2779C9.08359 14.4435 9.16426 14.6406 9.16 14.8693C9.15572 15.0979 9.07078 15.295 8.90518 15.4606C8.73959 15.6262 8.54248 15.709 8.31385 15.709C8.08523 15.709 7.88811 15.6262 7.72252 15.4606L1.3427 9.06796C1.19206 8.91732 1.08042 8.74853 1.00777 8.56157C0.935128 8.37459 0.898809 8.18763 0.898809 8.00067C0.898809 7.81371 0.935128 7.62675 1.00777 7.43978C1.08042 7.25282 1.19207 7.08402 1.3427 6.93338L7.73533 0.540756C7.90093 0.375158 8.09591 0.294492 8.32027 0.298756C8.54462 0.303033 8.73959 0.387971 8.90518 0.553568C9.07078 0.719166 9.15358 0.916276 9.15358 1.1449C9.15358 1.37353 9.07078 1.57064 8.90518 1.73623L2.64075 8.00067Z" fill="#333236"/>
</svg>
